<svg xmlns="http://www.w3.org/2000/svg" xmlns:xlink="http://www.w3.org/1999/xlink"><defs><clipPath id="clip0"><path fill="#fff" transform="translate(.75)" d="M0 0h60v60H0z"/></clipPath><clipPath id="clip0"><path fill="#fff" transform="translate(.75)" d="M0 0h60v60H0z"/></clipPath><clipPath id="clip0"><path fill="#fff" transform="translate(.75)" d="M0 0h60v60H0z"/></clipPath></defs><symbol id="bg" viewBox="0 0 1920 270"><path d="M1920 270H0v-8L1920 8v262z" fill="#EEEEF7"/><path fill-rule="evenodd" clip-rule="evenodd" d="M0 253L1920 0v17L0 270v-17z" fill="#EF2A82"/></symbol><symbol id="bg__logo" viewBox="0 0 2010 2010"><g opacity=".07" fill="#8794BA"><path d="M1834.54 437.483C1653.46 173.306 1349.47 0 1005 0 449.954 0 0 449.953 0 1005c0 80.75 9.524 159.28 27.51 234.52l511.785-511.788c49.059-49.06 128.601-49.06 177.66 0L1130.62 1141.4l703.92-703.917z"/><path d="M1953.99 673.356l-734.53 734.534c-49.06 49.06-128.61 49.06-177.67 0L628.125 994.223 127.343 1495.01C299.264 1802.28 627.874 2010 1005 2010c555.05 0 1005-449.95 1005-1005 0-116.21-19.72-227.813-56.01-331.644z"/></g></symbol><symbol id="icon__close" viewBox="0 0 32 32"><path d="M14.586 16l-7.293 7.293 1.414 1.414L16 17.414l7.293 7.293 1.414-1.414L17.414 16l7.293-7.293-1.414-1.414L16 14.586 8.707 7.293 7.293 8.707 14.586 16z" fill="var(--color-pink)"/></symbol><symbol id="icon__fb" viewBox="0 0 24 24"><path d="M9.5 8.667H7V12h2.5v10h4.167V12h3L17 8.667h-3.333V7.25c0-.75.166-1.083.916-1.083H17V2h-3.167c-3 0-4.333 1.333-4.333 3.833v2.834z"/></symbol><symbol id="icon__inst" viewBox="0 0 24 24"><path d="M12 3.833c2.667 0 3 0 4.083.084 2.75.083 4 1.416 4.084 4.083.083 1.083.083 1.333.083 4s0 3-.083 4c-.084 2.667-1.417 4-4.084 4.083-1.083.084-1.333.084-4.083.084-2.667 0-3 0-4-.084C5.25 20 4 18.667 3.917 16c-.084-1.083-.084-1.333-.084-4s0-3 .084-4C4 5.333 5.333 4 8 3.917c1-.084 1.333-.084 4-.084zM12 2c-2.75 0-3.083 0-4.083.083C4.25 2.25 2.25 4.25 2.083 7.917 2 8.917 2 9.25 2 12s0 3.083.083 4.083c.167 3.667 2.167 5.667 5.834 5.834C8.917 22 9.25 22 12 22s3.083 0 4.083-.083c3.667-.167 5.667-2.167 5.834-5.834C22 15.083 22 14.75 22 12s0-3.083-.083-4.083C21.75 4.25 19.75 2.25 16.083 2.083 15.083 2 14.75 2 12 2zm0 4.833c-2.833 0-5.167 2.334-5.167 5.167 0 2.833 2.334 5.167 5.167 5.167 2.833 0 5.167-2.334 5.167-5.167 0-2.833-2.334-5.167-5.167-5.167zm0 8.5A3.343 3.343 0 018.667 12c0-1.833 1.5-3.333 3.333-3.333 1.833 0 3.333 1.5 3.333 3.333 0 1.833-1.5 3.333-3.333 3.333zM17.333 5.5c-.666 0-1.166.5-1.166 1.167 0 .666.5 1.166 1.166 1.166.667 0 1.167-.5 1.167-1.166C18.5 6 18 5.5 17.333 5.5z"/></symbol><symbol id="icon__logo_color" viewBox="0 0 184 40"><path d="M36.504 8.706C32.9 3.45 26.852 0 19.998 0 8.952 0 0 8.954 0 20c0 1.607.19 3.17.547 4.667l10.184-10.185a2.5 2.5 0 013.535 0l8.231 8.233L36.504 8.706z" fill="#EF2A82"/><path d="M38.88 13.4L24.266 28.018a2.5 2.5 0 01-3.535 0l-8.232-8.233-9.964 9.966C5.954 35.866 12.494 40 19.997 40c11.045 0 19.998-8.954 19.998-20 0-2.313-.392-4.534-1.114-6.6z" fill="#EF2A82"/><path d="M62.8 25.056h-5.205L56.686 28h-4.058l5.779-15.76h3.571L67.8 28h-4.08l-.92-2.944zm-4.296-2.933h3.388l-1.7-5.466-1.688 5.466zM82.118 28h-3.777l-5.584-9.806V28h-3.799V12.24h3.8l5.573 9.807v-9.806h3.787V28zM93.666 25.056H88.46L87.551 28h-4.058l5.779-15.76h3.571L98.665 28h-4.08l-.92-2.944zm-4.297-2.933h3.388l-1.7-5.466-1.688 5.466zM103.622 25.078h6.612V28h-10.41V12.24h3.798v12.838zM114.574 19.081l2.901-6.84h4.101l-5.075 10.098V28h-3.853v-5.66l-5.065-10.1h4.08l2.911 6.841zM135.288 15.174h-4.729V28h-3.799V15.174h-4.643v-2.933h13.171v2.933zM140.948 28h-3.788V12.24h3.788V28zM156.337 22.664c-.05 1.097-.346 2.067-.887 2.912-.541.837-1.302 1.486-2.284 1.948-.974.461-2.088.692-3.344.692-2.07 0-3.701-.674-4.891-2.024-1.191-1.349-1.786-3.254-1.786-5.714v-.78c0-1.544.267-2.893.801-4.048.541-1.162 1.316-2.056 2.327-2.684 1.01-.635 2.178-.952 3.506-.952 1.912 0 3.449.505 4.61 1.515 1.162 1.003 1.822 2.388 1.981 4.156h-3.788c-.029-.96-.271-1.649-.725-2.067-.455-.419-1.147-.628-2.078-.628-.945 0-1.638.354-2.078 1.06-.44.708-.671 1.837-.693 3.389v1.114c0 1.682.21 2.883.628 3.605.426.721 1.155 1.082 2.186 1.082.873 0 1.541-.206 2.002-.617.462-.411.707-1.064.736-1.96h3.777zM166.261 23.811c0-.555-.198-.988-.595-1.299-.39-.31-1.079-.631-2.067-.963-.988-.332-1.797-.653-2.424-.963-2.042-1.003-3.063-2.381-3.063-4.135 0-.873.253-1.641.758-2.305.512-.671 1.233-1.19 2.164-1.559.931-.375 1.977-.563 3.139-.563 1.132 0 2.146.202 3.041.607.901.404 1.601.98 2.099 1.731.498.743.747 1.595.747 2.555h-3.788c0-.643-.198-1.14-.595-1.494-.39-.354-.92-.53-1.591-.53-.678 0-1.216.151-1.613.454-.389.296-.584.675-.584 1.137 0 .404.216.772.649 1.104.433.324 1.194.663 2.284 1.017 1.089.346 1.984.722 2.684 1.126 1.702.981 2.554 2.334 2.554 4.059 0 1.378-.52 2.46-1.559 3.247-1.039.786-2.463 1.18-4.274 1.18-1.277 0-2.435-.228-3.474-.682-1.032-.462-1.811-1.09-2.338-1.884-.519-.8-.779-1.72-.779-2.76h3.809c0 .845.217 1.469.65 1.873.44.397 1.15.595 2.132.595.627 0 1.122-.134 1.482-.4.368-.275.552-.657.552-1.148z" fill="#fff"/></symbol><symbol id="icon__logo_grey" viewBox="0 0 138 30"><path d="M27.378 6.53C24.675 2.587 20.138 0 14.998 0 6.715 0 0 6.716 0 15c0 1.205.142 2.377.41 3.5l7.638-7.638a1.874 1.874 0 012.652 0l6.173 6.174L27.378 6.53z" fill="#8794BA"/><path d="M29.16 10.05L18.2 21.013a1.874 1.874 0 01-2.652 0L9.374 14.84 1.9 22.314C4.466 26.9 9.37 30 14.998 30c8.283 0 14.998-6.716 14.998-15 0-1.735-.294-3.4-.835-4.95zM47.1 18.792h-3.904L42.515 21H39.47l4.334-11.82h2.679L50.85 21h-3.06l-.69-2.208zm-3.222-2.2h2.54l-1.274-4.1-1.266 4.1zM61.589 21h-2.833l-4.188-7.355V21h-2.85V9.18h2.85l4.18 7.355V9.181h2.84V21zM70.25 18.792h-3.905L65.663 21H62.62l4.334-11.82h2.678L74 21h-3.06l-.69-2.208zm-3.223-2.2h2.54l-1.274-4.1-1.266 4.1zM77.717 18.808h4.959V21h-7.808V9.18h2.849v9.628zM85.93 14.311l2.176-5.13h3.076l-3.806 7.574V21h-2.89v-4.245L80.687 9.18h3.06l2.184 5.13zM101.466 11.38h-3.547V21H95.07v-9.62h-3.482v-2.2h9.878v2.2zM105.711 21h-2.841V9.18h2.841V21zM117.253 16.998c-.038.823-.26 1.55-.666 2.184-.405.628-.976 1.115-1.712 1.46-.731.347-1.567.52-2.508.52-1.553 0-2.776-.506-3.669-1.518-.893-1.012-1.339-2.44-1.339-4.286v-.584c0-1.158.2-2.17.6-3.036.406-.871.988-1.543 1.745-2.013.758-.477 1.635-.715 2.63-.715 1.434 0 2.587.38 3.458 1.137.871.752 1.366 1.791 1.485 3.117h-2.841c-.021-.72-.202-1.237-.543-1.55-.341-.314-.861-.471-1.559-.471-.709 0-1.228.265-1.558.795-.33.53-.503 1.377-.52 2.541v.836c0 1.261.157 2.162.471 2.703.319.542.866.812 1.64.812.654 0 1.155-.154 1.501-.463.347-.308.531-.798.552-1.469h2.833zM124.696 17.858c0-.416-.149-.74-.446-.974-.293-.232-.809-.473-1.551-.722a14.94 14.94 0 01-1.818-.722c-1.531-.753-2.297-1.786-2.297-3.101 0-.655.189-1.232.568-1.73.384-.503.926-.893 1.624-1.169.698-.28 1.482-.422 2.353-.422.85 0 1.61.152 2.281.455.677.303 1.202.736 1.575 1.299.373.557.56 1.196.56 1.916h-2.841c0-.482-.149-.856-.446-1.12-.293-.266-.69-.398-1.193-.398-.509 0-.912.113-1.21.34-.292.222-.438.507-.438.853 0 .303.162.579.487.828.324.243.895.498 1.712.763.818.26 1.489.541 2.013.844 1.277.736 1.916 1.75 1.916 3.044 0 1.034-.39 1.846-1.169 2.436-.779.59-1.848.884-3.206.884-.958 0-1.826-.17-2.605-.511-.774-.346-1.359-.817-1.754-1.413-.389-.6-.584-1.29-.584-2.07h2.857c0 .634.162 1.102.487 1.405.33.297.863.446 1.599.446.471 0 .841-.1 1.112-.3.276-.206.414-.492.414-.86z" fill="#8794BA"/></symbol><symbol id="icon__menu" viewBox="0 0 32 32"><path d="M25 11.75H7V10h18v1.75zM25 16.875H7v-1.75h18v1.75zM7 22h18v-1.75H7V22z" fill="var(--color-pink)"/></symbol><symbol id="icon__monitoring" viewBox="0 0 61 60"><g clip-path="url(#clip0)" fill="#EF2A82"><path d="M47.998 6.71A28.709 28.709 0 0030.79 1.036c-5.692 0-11.348 1.638-15.557 4.45v-4.45a1.035 1.035 0 00-2.07 0v6.507a1.033 1.033 0 001.696.796C18.805 5.06 24.76 3.103 30.79 3.103a26.66 26.66 0 0115.977 5.271 1.032 1.032 0 001.446-.216c.34-.46.244-1.107-.215-1.447zM59.715 12.414h-6.508a1.033 1.033 0 00-.794 1.697c3.277 3.944 5.235 9.9 5.235 15.93 0 5.797-1.823 11.32-5.271 15.976a1.034 1.034 0 101.662 1.231 28.71 28.71 0 005.676-17.208c0-5.692-1.638-11.349-4.45-15.557h4.45a1.035 1.035 0 000-2.07zM47.742 51.522a1.034 1.034 0 00-1.1.141c-3.946 3.277-9.901 5.235-15.931 5.235a26.655 26.655 0 01-15.977-5.271 1.034 1.034 0 10-1.232 1.662 28.71 28.71 0 0017.208 5.677c5.692 0 11.348-1.639 15.557-4.45v4.45a1.035 1.035 0 002.07 0v-6.508c0-.402-.232-.767-.595-.936zM9.088 45.89c-3.277-3.945-5.235-9.9-5.235-15.93a26.66 26.66 0 015.27-15.976 1.034 1.034 0 10-1.662-1.232A28.71 28.71 0 001.785 29.96c0 5.692 1.638 11.348 4.45 15.557h-4.45a1.035 1.035 0 000 2.07h6.507a1.034 1.034 0 00.796-1.696zM31.785 19.653a1.034 1.034 0 00-1.035-1.032h-.002a1.034 1.034 0 00-1.033 1.036l.025 10.345a1.034 1.034 0 001.035 1.032h.002a1.034 1.034 0 001.032-1.036l-.024-10.345z"/><path d="M30.775 28.965h-6.232a1.035 1.035 0 000 2.07h6.232a1.035 1.035 0 000-2.07z"/><path d="M30.75 8.276C18.772 8.276 9.026 18.02 9.026 30c0 11.98 9.746 21.724 21.724 21.724 11.98 0 21.724-9.745 21.724-21.724 0-11.98-9.745-21.724-21.724-21.724zm0 41.38c-10.838 0-19.655-8.818-19.655-19.656s8.817-19.655 19.655-19.655c10.838 0 19.655 8.817 19.655 19.655 0 10.838-8.817 19.655-19.655 19.655z"/><path d="M16.267 28.965h-2.069a1.035 1.035 0 000 2.07h2.07a1.035 1.035 0 000-2.07zM47.302 28.965h-2.07a1.035 1.035 0 000 2.07h2.07a1.035 1.035 0 000-2.07zM30.75 43.448c-.571 0-1.035.464-1.035 1.035v2.069a1.035 1.035 0 002.07 0v-2.07c0-.57-.464-1.034-1.035-1.034zM30.75 12.414c-.571 0-1.035.463-1.035 1.034v2.07a1.035 1.035 0 002.07 0v-2.07c0-.57-.464-1.034-1.035-1.034zM21.137 39.614a1.033 1.033 0 00-1.463 0l-1.36 1.358a1.035 1.035 0 001.463 1.462l1.36-1.358a1.035 1.035 0 000-1.462zM43.184 17.566a1.033 1.033 0 00-1.462 0l-1.358 1.358a1.033 1.033 0 101.462 1.463l1.358-1.359a1.033 1.033 0 000-1.462zM43.184 40.972l-1.358-1.359a1.033 1.033 0 10-1.462 1.463l1.358 1.358a1.032 1.032 0 001.462 0 1.033 1.033 0 000-1.462zM21.137 18.924l-1.36-1.358a1.033 1.033 0 10-1.463 1.462l1.36 1.359a1.031 1.031 0 001.463 0 1.033 1.033 0 000-1.463z"/></g></symbol><symbol id="icon__performance" viewBox="0 0 61 60"><g clip-path="url(#clip0)" fill="#EF2A82"><path d="M19.814 23.391a.998.998 0 00-.825-.543l-8.412-.56a.982.982 0 00-.998.632L3.515 38.42a.999.999 0 001.53 1.164l5.034-3.775 2.931.586a1 1 0 001.13-.624c1.574-4.122 3.469-7.956 5.63-11.393a1 1 0 00.044-.986zm-7.236 10.877l-2.546-.509a1.007 1.007 0 00-.796.181l-2.578 1.934 4.516-11.543 6.038.402c-1.74 2.945-3.294 6.142-4.634 9.535zM38.463 50.174l-.561-8.413a1.001 1.001 0 00-1.53-.781c-3.438 2.16-7.27 4.055-11.393 5.63a.998.998 0 00-.624 1.129l.586 2.93-3.775 5.033a1 1 0 001.165 1.534l15.5-6.064a1 1 0 00.632-.998zm-13.588 3.917l1.934-2.579a1 1 0 00.18-.796l-.51-2.545c3.395-1.34 6.591-2.894 9.536-4.633l.403 6.036-11.543 4.517zM29.748 30H23.01c-.363 0-.697.198-.874.515L13.68 45.709a1.001 1.001 0 00.874 1.486.986.986 0 00.517-.145l15.195-9.195a1 1 0 00.482-.855v-6a1 1 0 00-1-1zm-1 6.437L17.26 43.39 23.597 32h5.151v4.436z"/><path d="M60.7.964a1.001 1.001 0 00-.914-.914c-.332-.026-33.26-2.325-47.514 35.006a.999.999 0 00.227 1.064l4.755 4.755c.223.223.535.325.848.283.31-.045.583-.233.735-.508L23.6 32h5.147v4.45l-8.701 5.493a1.003 1.003 0 00-.173 1.553l4.755 4.754a.999.999 0 001.063.227C63.025 34.223 60.728 1.295 60.7.964zm-5.246 17.74c-3.509 8.682-11.538 20.484-29.872 27.672l-3.41-3.41 8.11-5.119c.29-.184.466-.503.466-.846v-6a1 1 0 00-1-1h-6.74a1 1 0 00-.876.518l-4.406 8.002-3.353-3.354C26.885 3.247 53.555 1.942 58.74 2.015c.037 2.332-.177 8.997-3.286 16.69zM17.879 44.164a.997.997 0 00-.902-.392 1 1 0 00-.392-.901c-1.508-1.14-3.454-1.52-5.34-1.041a6.726 6.726 0 00-4.494 3.75L.84 58.584a.998.998 0 001.324 1.324l13.006-5.912a6.723 6.723 0 003.749-4.492c.479-1.885.1-3.832-1.04-5.34zm-.898 4.85a4.737 4.737 0 01-2.638 3.163l-10.58 4.809 4.81-10.58a4.734 4.734 0 014.275-2.779 4.22 4.22 0 011.787.392l-.952 1.685a1 1 0 001.363 1.363l1.685-.953c.41.882.503 1.901.25 2.9z"/><path d="M60.7.965a1.001 1.001 0 00-.914-.914c-.39-.031-9.66-.733-20.56 4.289a1 1 0 00-.29 1.614l15.859 15.86a1 1 0 001.616-.289c5.023-10.901 4.32-20.171 4.288-20.56zm-5.522 18.401L41.383 5.571c7.98-3.368 14.969-3.6 17.358-3.56.04 2.39-.185 9.357-3.563 17.355zM44.91 15.839c-3.362-3.363-8.833-3.363-12.195 0-3.363 3.362-3.363 8.833 0 12.196a8.594 8.594 0 006.097 2.522 8.6 8.6 0 006.099-2.522c3.362-3.363 3.362-8.834 0-12.196zM43.498 26.62a6.632 6.632 0 01-9.369 0 6.632 6.632 0 010-9.368 6.605 6.605 0 014.684-1.937c1.696 0 3.393.646 4.685 1.937a6.632 6.632 0 010 9.368z"/><path d="M40.8 23.925a2.813 2.813 0 01-3.977 0 2.816 2.816 0 010-3.977 2.815 2.815 0 013.977 0 .999.999 0 101.414-1.414 4.817 4.817 0 00-6.805 0 4.817 4.817 0 000 6.805 4.798 4.798 0 003.403 1.407 4.792 4.792 0 003.402-1.407.999.999 0 10-1.414-1.414z"/></g></symbol><symbol id="icon__tw" viewBox="0 0 24 24"><path d="M7.548 22c9.057 0 14.01-7.694 14.01-14.365 0-.219-.005-.436-.014-.653A10.165 10.165 0 0024 4.368a9.633 9.633 0 01-2.828.794 5.047 5.047 0 002.166-2.793 9.724 9.724 0 01-3.127 1.226A4.864 4.864 0 0016.617 2c-2.72 0-4.925 2.261-4.925 5.048 0 .397.043.782.127 1.152C7.727 7.989 4.1 5.98 1.67 2.925a5.128 5.128 0 00-.667 2.537 5.08 5.08 0 002.192 4.203 4.797 4.797 0 01-2.23-.632c-.002.021-.002.043-.002.065 0 2.445 1.698 4.487 3.95 4.95a4.814 4.814 0 01-2.223.086c.627 2.006 2.445 3.466 4.6 3.507A9.726 9.726 0 010 19.732 13.69 13.69 0 007.548 22z"/></symbol><symbol id="icon__widget" viewBox="0 0 61 60"><g clip-path="url(#clip0)" fill="#EF2A82"><path d="M33.75 41h-6a1 1 0 000 2h6a1 1 0 000-2zM56.749 1H4.751A4.006 4.006 0 00.75 5.001V38a1 1 0 001 1h58a1 1 0 001-1V5.001A4.006 4.006 0 0056.749 1zm2.001 36h-56V5.001C2.75 3.897 3.648 3 4.751 3h51.998c1.103 0 2.001.897 2.001 2.001V37z"/><path d="M59.75 37h-58a1 1 0 00-1 1v4.999a4.006 4.006 0 004.001 4h51.998a4.006 4.006 0 004.001-4V38a1 1 0 00-1-1zm-1 5.999A2.003 2.003 0 0156.749 45H4.751a2.003 2.003 0 01-2.001-2.001V39h56v3.999z"/><path d="M55.75 5h-50a1 1 0 00-1 1v32a1 1 0 001 1h50a1 1 0 001-1V6a1 1 0 00-1-1zm-1 32h-48V7h48v30zM43.75 53h-26c-1.654 0-3 1.346-3 3s1.346 3 3 3h26c1.654 0 3-1.346 3-3s-1.346-3-3-3zm0 4h-26a1.001 1.001 0 010-2h26a1.001 1.001 0 010 2z"/><path d="M41.75 53c-3.318 0-5-2.355-5-7a1 1 0 00-1-1h-10a1 1 0 00-1 1c0 4.645-1.682 7-5 7a1 1 0 000 2h22a1 1 0 000-2zm-17.13 0c1.232-1.364 1.957-3.395 2.103-6h8.055c.145 2.605.87 4.636 2.102 6H24.62zM48.534 30.464L46.12 28.05l1.343-1.343a1.001 1.001 0 00-.42-1.665l-9.999-3a.998.998 0 00-1.245 1.245l3 10a.999.999 0 001.665.42l1.414-1.415 2.414 2.415a.998.998 0 001.414 0l2.828-2.83a.999.999 0 000-1.413zm-3.535 2.122L42.8 30.387a1.304 1.304 0 00-1.846-.001l-.722.722-1.985-6.617 6.617 1.985-.774.774c-.213.214-.33.498-.33.8 0 .303.118.589.332.801l2.32 2.32-1.414 1.415zM42.75 9h-28a1 1 0 00-1 1v5a1 1 0 001 1h28a1 1 0 001-1v-5a1 1 0 00-1-1zm-1 5h-26v-3h26v3zM26.75 20h-8a1 1 0 00-1 1v4a1 1 0 001 1h8a1 1 0 001-1v-4a1 1 0 00-1-1zm-1 4h-6v-2h6v2z"/><path d="M42.75 9h-28a1 1 0 00-1 1v19a1 1 0 001 1h23.806a1 1 0 00.958-1.288l-1.266-4.221 4.215 1.265a.997.997 0 001.287-.958V10a1 1 0 00-1-1zm-1 14.454l-4.707-1.412a.998.998 0 00-1.245 1.246L37.212 28H15.75V11h26v12.454z"/></g></symbol></svg>